<?xml version="1.0" standalone="no"?>
<!DOCTYPE svg PUBLIC "-//W3C//DTD SVG 20010904//EN"
 "http://www.w3.org/TR/2001/REC-SVG-20010904/DTD/svg10.dtd">
<svg version="1.0" xmlns="http://www.w3.org/2000/svg"
 width="260.000000pt" height="260.000000pt" viewBox="0 0 260.000000 260.000000"
 preserveAspectRatio="xMidYMid meet">
<metadata>
Created by potrace 1.11, written by Peter Selinger 2001-2013
</metadata>
<g transform="translate(0.000000,260.000000) scale(0.100000,-0.100000)"
fill="#000000" stroke="none">
<path d="M1540 2281 c0 -382 3 -372 -95 -347 -68 18 -197 21 -276 6 -30 -6
-92 -29 -139 -52 -70 -34 -101 -57 -181 -137 -144 -144 -199 -268 -199 -448 0
-41 5 -106 12 -145 10 -65 10 -72 -7 -84 -15 -11 -84 -14 -337 -14 l-318 0 0
-125 0 -125 359 0 c356 0 358 0 392 -23 59 -40 59 -39 59 -429 l0 -358 125 0
125 0 0 319 c0 382 -3 372 95 347 68 -18 197 -21 276 -6 30 6 92 29 139 51 69
33 103 59 178 133 79 77 100 105 137 181 25 50 49 114 55 144 15 78 12 208 -5
276 -15 56 -15 60 3 78 18 17 38 18 340 17 l322 -1 0 126 0 125 -355 0 c-393
0 -397 1 -435 63 -19 30 -20 53 -20 390 l0 357 -125 0 -125 0 0 -319z m-68
-704 c111 -73 148 -143 148 -279 0 -113 -17 -156 -90 -228 -72 -73 -114 -90
-230 -90 -116 0 -158 17 -230 90 -73 72 -90 114 -90 230 0 116 17 158 90 230
77 78 114 91 240 88 103 -3 107 -4 162 -41z"/>
</g>
</svg>
